<?xml version="1.0"?>
<!--Icons from directory ""-->
<svg xmlns="http://www.w3.org/2000/svg" width="14" height="126" viewBox="0 0 14 126"><svg viewBox="0 0 141.8 131.9" width="14" height="14" id="activity" y="0"><g fill="#58595B"><path d="M128.3 8.7s-15.9-7.5-36.6-7.5c-16.2 0-35.4 4.6-52 21.2 0 0-48 39.6-27.3 99.9 0 0 14.9 9.6 36.8 9.6 19 0 43.3-7.2 67.8-34.3 0 0 34.8-29.1 11.3-88.9zm-3.7 28l-23.9-23.9c8.2 1 15 3 19 4.4 2.4 6.7 4 13.2 4.9 19.5zM18.4 96.8l23.8 23.8c-9.4-1-16.7-3.9-20.6-5.8-1.8-6.1-2.9-12.1-3.2-18zm91.5-7.6c-.4.3-.7.6-1.1 1-16 17.7-33.2 27.8-51.3 30.1L19 81.8c1.3-8.9 4.1-17.6 8.6-26.1C35.8 40.1 46.6 31 46.7 31c.3-.2.5-.5.8-.7C57.9 19.9 70.4 14 84.9 12.6L125.3 53c-.4 6.1-1.6 12-3.7 17.6-4.3 11.8-11.1 18.1-11.7 18.6z"/><path d="M99.8 47.8l.5-.5c2.2-2.1 2.2-5.6.1-7.8s-5.6-2.2-7.8-.1l-.6.7-6.1-6.1c-2.1-2.1-5.6-2.1-7.8 0-2.1 2.1-2.1 5.6 0 7.8l6 6-4.3 4.2-5.5-5.5c-2.1-2.1-5.6-2.1-7.8 0-2.1 2.1-2.1 5.6 0 7.8l5.4 5.4-4.9 4.5-5.3-5.3c-2.1-2.1-5.6-2.1-7.8 0-2.1 2.1-2.1 5.6 0 7.8l5.2 5.2-4.8 4.6-5.1-5.1c-2.1-2.1-5.6-2.1-7.8 0-2.1 2.1-2.1 5.6 0 7.8l5 5-.3.3c-2.2 2.1-2.2 5.6-.1 7.8 1.1 1.1 2.5 1.7 4 1.7 1.4 0 2.8-.5 3.8-1.5l.4-.4 6.5 6.5c1.1 1.1 2.5 1.6 3.9 1.6s2.8-.5 3.9-1.6c2.1-2.1 2.1-5.6 0-7.8l-6.4-6.4 4.8-4.6 6.3 6.3c1.1 1.1 2.5 1.6 3.9 1.6s2.8-.5 3.9-1.6c2.1-2.1 2.1-5.6 0-7.8L74.8 72l4.8-4.6 6.1 6.1c1.1 1.1 2.5 1.6 3.9 1.6s2.8-.5 3.9-1.6c2.1-2.1 2.1-5.6 0-7.8l-6-6 4.3-4.2 5.5 5.5c1.1 1.1 2.5 1.6 3.9 1.6s2.8-.5 3.9-1.6c2.1-2.1 2.1-5.6 0-7.8l-5.3-5.4z"/></g></svg><svg viewBox="0 0 141.8 131.9" width="14" height="14" id="flag" y="14"><path fill="#58595B" d="M26.7 131.9c-4 0-7.9-.4-11.6-1.2l-.4-.1c-4.1-.8-10.2-2.1-13.4-8.7-.4-.8-.6-1.7-.6-2.6v-102c0-2.1 1.1-4 2.9-5 1.8-1 4-1 5.8 0l8.9 5.2c2.6.5 5.4.7 8.3.7 11.9 0 24.4-4 37.6-8.3 13.4-4.3 27.3-8.8 40.9-8.8 12.7 0 23.5 3.8 33.2 11.7 1.4 1.1 2.1 2.8 2.1 4.5v102c0 2.3-1.3 4.3-3.3 5.3-2 1-4.4.7-6.2-.8-7.6-6.2-15.8-9.1-25.8-9.1-11.8 0-24.2 4-37.3 8.3-13.4 4.4-27.3 8.9-41.1 8.9zm-14.3-14.3c.8.7 2.1 1.1 4.7 1.6l.4.1c2.9.6 5.9.9 9.2.9 11.9 0 24.4-4 37.6-8.3 13.4-4.3 27.3-8.8 40.9-8.8 8.7 0 16.5 1.8 23.7 5.5V20.3c-7-5.1-14.6-7.5-23.7-7.5-11.8 0-24.2 4-37.3 8.3C54.4 25.5 40.5 30 26.7 30c-4 0-7.9-.4-11.6-1.2-.6-.1-1.2-.4-1.7-.7l-1-.6v90.1z"/></svg><svg viewBox="0 0 141.8 131.9" width="14" height="14" id="food" y="28"><path fill="#58595B" d="M72.1 131c-2.2 0-4.2-1.3-5.1-3.4L27 31.9c-.7-1.7-.5-3.6.5-5.2s2.7-2.5 4.6-2.5h78.6c1.8 0 3.5.9 4.6 2.4 1 1.5 1.2 3.4.5 5.1l-38.6 95.8c-.9 2.2-2.9 3.5-5.1 3.5zM40.3 35.2L72 111l30.6-75.8H40.3z"/><circle fill="#58595B" cx="51.9" cy="54.3" r="11.7"/><circle fill="#58595B" cx="82.8" cy="80.3" r="11.7"/><circle fill="#58595B" cx="84" cy="42.4" r="11.7"/><path fill="#58595B" d="M110.8 34H33.9c-9.5 0-17.2-7.7-17.2-17.2S24.4-.4 33.9-.4h76.8c9.5 0 17.2 7.7 17.2 17.2.1 9.5-7.6 17.2-17.1 17.2zM33.9 10.6c-3.4 0-6.2 2.8-6.2 6.2 0 3.4 2.8 6.2 6.2 6.2h76.8c3.4 0 6.2-2.8 6.2-6.2 0-3.4-2.8-6.2-6.2-6.2H33.9z"/></svg><svg viewBox="0 0 141.8 131.9" width="14" height="14" id="nature" y="42"><path fill="#58595B" d="M69.1 11.5c14.6 0 19.3 8.5 19.3 16.3v26.1c0 4.8-1.6 14.7 3.4 17.7 1.4.8 2.5 1.2 3.5 1.2 7.6 0 5.2-21 5-25.2-.2-8.1-2.2-23.4 10.2-23.4 7.7 0 13.9 2.3 13.9 9.3 0 11.6 1.4 41 .4 44.3-3.5 11.6-25.4 12.1-35 12.1v24.8s2.3 6.2-18.5 6.2h-2.4c-5.2 0-16.8-.5-16.8-4.7v-12.4c0 .1-.2.1-.4.1-2.4 0-14.3-2.3-15-2.5-7.8-2.3-20.8-8-20.9-17.6C15.7 76 12 58.9 18.5 53c2.4-2.2 8-4 13-4 5.1 0 9.6 1.9 9.6 7.5v7.7c0 3.5-.3 7.2 0 10.6.3 3.8 2.4 6.3 5.7 7.9 1.6.8 2.6 1.1 3.3 1.1.4 0 .8-.1 1-.4.4-.5.6-1.5 1-2.9 1.2-5.4 0-12.6 0-18.2V31.6c0 .1 2.3-20.1 17-20.1m0-11C58.7.5 50.2 6.3 45.2 16.8c-3.1 6.5-3.9 12.9-4 13.6l-.1 1.3v8.1c-2.8-1.2-6-1.8-9.6-1.8-6.4 0-15.2 2.1-20.4 6.9C2 53.1 3.4 67.7 4.3 78.3c.2 2.2.4 4.3.4 5.6.2 12.5 10.7 22.7 28.8 28 .6.2 3.9.9 7.6 1.5v2.7c0 3.6 1.5 12.2 15.5 14.7 4.3.8 9.1.9 12.3.9h2.6c14.4 0 22.7-2.8 26.9-8.8 2-2.8 2.8-6.1 2.4-9.3v-13.1c12.9-1 30-4.7 34.5-19.5 1-3.2 1-7.8.4-30.6-.2-6.6-.4-12.9-.4-16.8 0-9.8-6.5-20.3-24.9-20.3-6.1 0-10.3 2.1-13.1 4.4C93.7 8.1 84.6.5 69.1.5z"/></svg><svg viewBox="0 0 141.8 131.9" width="14" height="14" id="object" y="56"><path fill="#58595B" d="M119.5 8.6V8c0-3.9-3.2-7.1-7.1-7.1H34.1C30.2.8 27 4.1 27 8v.6c0 3.9 3.2 7.1 7.1 7.1h.6c-.4 5.7-.1 11.3.8 16.6 1.9 11 7.8 16.2 13.5 21.2 2 1.7 4 3.5 6 5.6 4 4.2 4.5 11.9-2.2 18.5-13 12.7-17.1 24.9-18 39.4h-.7c-3.9 0-7.1 3.2-7.1 7.1v.6c0 3.9 3.2 7.1 7.1 7.1h78.2c3.9 0 7.1-3.2 7.1-7.1v-.6c0-3.9-3.2-7.1-7.1-7.1h-.7c-.9-14.5-5-26.7-18-39.4-6.7-6.5-6.2-14.2-2.2-18.5 2-2.1 4-3.9 6-5.6 5.7-5 11.6-10.2 13.5-21.2.9-5.3 1.2-10.9.8-16.6h.6c4 0 7.2-3.2 7.2-7.1zm-18.4 22c-1.3 7.5-4.9 10.7-10.2 15.4-2 1.8-4.4 3.8-6.7 6.3-7.2 7.6-8.8 21.6 2.5 32.5l1.8 1.8C83.4 84.4 78 83 73.2 83 68.5 83 63 84.3 58 86.6l1.8-1.8c11.2-10.9 9.6-24.9 2.5-32.5-2.3-2.4-4.6-4.5-6.7-6.3-5.4-4.7-9-7.9-10.2-15.4-.8-4.8-1-9.8-.7-14.9h57c.4 5.2.2 10.2-.6 14.9z"/></svg><svg viewBox="0 0 141.8 131.9" width="14" height="14" id="people" y="70"><g fill="#58595B"><path d="M71.3.3C35 .3 5.5 29.8 5.5 66.1s29.5 65.8 65.8 65.8 65.8-29.5 65.8-65.8S107.7.3 71.3.3zm0 120.5c-30.2 0-54.7-24.5-54.7-54.7 0-30.2 24.5-54.7 54.7-54.7S126 36 126 66.1c0 30.2-24.5 54.7-54.7 54.7z"/><circle cx="41.2" cy="54.3" r="12.8"/><circle cx="101.7" cy="54.3" r="12.8"/><path d="M94.9 76H47.7c-1.4 0-2.6.7-3.4 1.8-.7 1.2-.9 2.6-.3 3.9 1.2 2.7 12.1 26 27.3 26 15.2 0 26.1-23.3 27.3-26 .6-1.3.4-2.7-.3-3.9-.7-1.1-2-1.8-3.4-1.8z"/></g></svg><svg viewBox="0 0 141.8 131.9" width="14" height="14" id="recent" y="84"><g fill="#58595B"><path d="M70.6 0C34.2 0 4.8 29.4 4.8 65.7c0 36.3 29.4 65.7 65.7 65.7 36.3 0 65.7-29.4 65.7-65.7C136.3 29.4 106.9 0 70.6 0zm0 120.4C40.5 120.4 16 95.9 16 65.8s24.5-54.6 54.6-54.6 54.6 24.5 54.6 54.6-24.5 54.6-54.6 54.6z"/><path d="M85.5 47.1L76.6 56V26.9c0-3.3-2.7-6-6-6s-6 2.7-6 6v42.2c0 3.3 2.7 6 6 6 .3 0 .5 0 .8-.1.2 0 .4.1.6.1 1.5 0 3.1-.6 4.2-1.8L94 55.5c2.3-2.3 2.3-6.1 0-8.5-2.4-2.3-6.2-2.3-8.5.1z"/></g></svg><svg viewBox="0 0 141.8 131.9" width="14" height="14" id="symbol" y="98"><path fill="#58595B" d="M71 131.2c-1.1 0-2.2-.3-3.2-.9-20.7-13.4-35.7-26-47.1-39.7C6.4 73.5-.4 56.5.4 40.1 1.6 18.4 20.2.7 42 .7c3.4 0 6.8.4 10.2 1.3C59 3.8 65.6 7.5 71 12.5c5.4-5 12-8.8 18.8-10.5C93.1 1.1 96.6.7 100 .7c21.8 0 40.4 17.7 41.6 39.4.9 16.4-5.9 33.4-20.2 50.5-11.5 13.7-26.4 26.3-47.1 39.7-1.1.6-2.2.9-3.3.9zM42 12.4c-15.7 0-29.1 12.7-29.9 28.3-.7 13.4 5.2 27.6 17.5 42.4 10.1 12.1 23.3 23.4 41.3 35.3 18-11.9 31.2-23.2 41.3-35.3 12.3-14.8 18.2-29 17.5-42.4-.8-15.6-14.2-28.3-29.9-28.3-2.4 0-4.8.3-7.2.9C86.3 15 80 19.2 75.5 24.7c-1.1 1.4-2.8 2.2-4.6 2.2s-3.4-.8-4.6-2.2c-4.5-5.6-10.8-9.7-17.2-11.4-2.3-.6-4.7-.9-7.1-.9z"/></svg><svg viewBox="0 0 141.8 131.9" width="14" height="14" id="travel" y="112"><path fill="#58595B" d="M37.6 107.5c-1.2 0-2.4-.4-3.3-1.2a4.6 4.6 0 0 1-1.7-3.6c-.1-1.8-1-44.6 23-65.6C90.9.4 134.9 0 136.8 0c1.5 0 2.8.6 3.8 1.7s1.4 2.6 1.1 4c-7.3 46.4-32.2 75.8-34.7 78.6-5.6 7.4-18.6 13.3-39.8 18.1-15.1 3.4-28.5 4.9-29.1 5-.1.1-.3.1-.5.1zm93.1-97C118 12 87.6 18.2 62.6 44.1l-.3.3c-15.9 13.9-19 40.8-19.6 52.4C63.1 94 92.4 87.3 99 78.2c.1-.1.2-.3.3-.4.3-.2 23.2-26.2 31.4-67.3z"/><path fill="#58595B" d="M77.8 131.9c-.5 0-1-.1-1.5-.2-1.9-.6-3.2-2.3-3.4-4.3-1.1-11.7-4.7-23.8-7.4-24.9l1.7-9.9c8.1 1.3 12.1 12.8 14.1 22.8l15.6-17.8v-15h10v16.8c0 1.2-.4 2.4-1.2 3.3l-24 27.3c-1.1 1.3-2.5 1.9-3.9 1.9zM38.4 74.7c-10.9-9.7-23.5-7.4-23.7-7.3-2.2.4-4.5-.7-5.5-2.7s-.5-4.5 1.2-6l26.2-22.5c.9-.8 2.1-1.2 3.3-1.2h19.8v10H41.8L26.7 58c5.6 1.2 12.2 3.8 18.4 9.3l-6.7 7.4zM13.8 131.9c-2.8 0-5-2.2-5-5 0-21.6 4.7-36.6 14.1-44.7 8.1-7 16.4-6.1 17.3-5.9 2.7.4 4.6 2.9 4.3 5.6-.4 2.7-2.9 4.6-5.6 4.3-.3 0-5-.4-9.6 3.8-4.8 4.3-10.4 14.2-10.4 37-.1 2.7-2.4 4.9-5.1 4.9z"/><path fill="#58595B" d="M15.2 131.9h-1.5c-2.8 0-5-2.3-4.9-5.1 0-2.7 2.3-4.9 5-4.9h.1c17.5.2 30.2-3.4 36.6-10.3 4.9-5.4 4.5-11 4.5-11.2-.3-2.7 1.6-5.2 4.4-5.5 2.7-.3 5.2 1.7 5.6 4.4 0 .4 1.1 10.1-6.8 18.9-8.4 9.1-22.8 13.7-43 13.7zM107.2 53c-1.2 0-2.3-.4-3.2-1.2-1.6-1.4-2.2-3.6-1.5-5.6.1-.2.2-.5.2-.7.6-2 .3-4.2-.7-6-1-1.8-2.8-3.2-4.8-3.7-.8-.2-1.7-.3-2.6-.3-2.1.1-4.1-1.1-4.9-3-.8-1.9-.4-4.2 1.2-5.6 3-2.7 6.8-4.3 10.8-4.3 1.4 0 2.9.2 4.2.6 8.5 2.3 13.5 11.2 11.1 19.6-1.1 4.1-3.7 7.5-7.4 9.6-.7.4-1.6.6-2.4.6z"/><path fill="#58595B" d="M57.4 106l-8.3-5.6 32.8-48.8-1.6-2.2 6.8-5c2-1.4 4.7-1.3 6.4.4 1.8 1.7 2 4.4.7 6.4L57.4 106z"/><path fill="#58595B" d="M88.273 43.54l5.902 8.074-56.592 41.373-5.902-8.073z"/></svg></svg>
