<svg xmlns="http://www.w3.org/2000/svg" viewBox="0 0 40 40"><defs><style>.cls-icon-fill{fill:#5a5a5a;}</style></defs><path class="cls-icon-fill" d="M20.09.86a19,19,0,1,1-19,18.93A19,19,0,0,1,20.09.86ZM16.45,20.13c.28-.31.48-.53.68-.73q3-3.06,6.08-6.11c.86-.87.86-1.36,0-2.24-.15-.16-.3-.31-.46-.46-.8-.76-1.28-.77-2.06,0-2.82,2.8-5.62,5.61-8.43,8.43-.78.78-.78,1.29,0,2.06,2.8,2.82,5.61,5.62,8.42,8.43a1.25,1.25,0,0,0,2.08,0l.51-.51c.79-.81.8-1.33,0-2.13s-1.59-1.61-2.39-2.4C19.43,23.05,18,21.61,16.45,20.13Z"/></svg>