<?xml version="1.0" encoding="UTF-8" standalone="no"?>
<!-- Generator: Adobe Illustrator 19.0.0, SVG Export Plug-In . SVG Version: 6.00 Build 0)  -->

<svg
   xmlns:dc="http://purl.org/dc/elements/1.1/"
   xmlns:cc="http://creativecommons.org/ns#"
   xmlns:rdf="http://www.w3.org/1999/02/22-rdf-syntax-ns#"
   xmlns:svg="http://www.w3.org/2000/svg"
   xmlns="http://www.w3.org/2000/svg"
   xmlns:sodipodi="http://sodipodi.sourceforge.net/DTD/sodipodi-0.dtd"
   xmlns:inkscape="http://www.inkscape.org/namespaces/inkscape"
   version="1.1"
   id="Layer_1"
   x="0px"
   y="0px"
   viewBox="0 0 512 512"
   style="enable-background:new 0 0 512 512;"
   xml:space="preserve"
   sodipodi:docname="left.svg"
   inkscape:version="0.92.4 (5da689c313, 2019-01-14)"><metadata
   id="metadata2242"><rdf:RDF><cc:Work
       rdf:about=""><dc:format>image/svg+xml</dc:format><dc:type
         rdf:resource="http://purl.org/dc/dcmitype/StillImage" /></cc:Work></rdf:RDF></metadata><defs
   id="defs2240" /><sodipodi:namedview
   pagecolor="#ffffff"
   bordercolor="#666666"
   borderopacity="1"
   objecttolerance="10"
   gridtolerance="10"
   guidetolerance="10"
   inkscape:pageopacity="0"
   inkscape:pageshadow="2"
   inkscape:window-width="1920"
   inkscape:window-height="1027"
   id="namedview2238"
   showgrid="false"
   inkscape:zoom="0.4609375"
   inkscape:cx="-96.542373"
   inkscape:cy="256"
   inkscape:window-x="-8"
   inkscape:window-y="-8"
   inkscape:window-maximized="1"
   inkscape:current-layer="Layer_1" />
<g
   id="g2205">
	<g
   id="g2203">
		<path
   d="M256,0C114.837,0,0,114.837,0,256s114.837,256,256,256s256-114.837,256-256S397.163,0,256,0z M313.749,347.584    c8.341,8.341,8.341,21.824,0,30.165c-4.16,4.16-9.621,6.251-15.083,6.251c-5.461,0-10.923-2.091-15.083-6.251L176.917,271.083    c-8.341-8.341-8.341-21.824,0-30.165l106.667-106.667c8.341-8.341,21.824-8.341,30.165,0s8.341,21.824,0,30.165L222.165,256    L313.749,347.584z"
   id="path2201" />
	</g>
</g>
<g
   id="g2207">
</g>
<g
   id="g2209">
</g>
<g
   id="g2211">
</g>
<g
   id="g2213">
</g>
<g
   id="g2215">
</g>
<g
   id="g2217">
</g>
<g
   id="g2219">
</g>
<g
   id="g2221">
</g>
<g
   id="g2223">
</g>
<g
   id="g2225">
</g>
<g
   id="g2227">
</g>
<g
   id="g2229">
</g>
<g
   id="g2231">
</g>
<g
   id="g2233">
</g>
<g
   id="g2235">
</g>
<path
   style="fill:#ffffff;stroke-width:2.16949153"
   d="M 289.62712,380.64217 C 282.62721,376.83799 177.92874,272.0038 174.30814,265.17373 c -6.9008,-13.01802 -4.79866,-15.87163 57.38572,-77.89976 55.53819,-55.39865 58.48278,-57.97228 66.32826,-57.97228 11.41227,0 20.89313,9.43825 20.89313,20.79923 0,7.68027 -2.61712,10.74699 -48.74255,57.11603 l -48.74255,49 48.74255,48.92162 c 46.30586,46.47598 48.74255,49.33127 48.74255,57.11603 0,15.2612 -16.25864,25.46864 -29.28813,18.38757 z"
   id="path2787"
   inkscape:connector-curvature="0" /><path
   style="fill:#1a1a1a;stroke-width:2.16949153"
   d="M 215.39888,507.76808 C 163.89881,499.74905 112.77888,473.36129 75.153879,435.37451 -23.879393,335.38907 -23.533828,175.88208 75.932203,76.112388 143.76488,8.072627 242.52429,-15.864003 334.53492,13.434028 437.66359,46.272263 510.91525,146.25309 510.91525,254.17465 c 0,158.21742 -139.45966,277.89286 -295.51637,253.59343 z M 305.54873,383.26511 C 315.11554,379.62782 320,372.36283 320,361.77074 v -9.69583 l -48.18614,-48.49267 -48.18614,-48.49265 48.18614,-48.36026 C 319.45183,158.91922 320,158.26432 320,149.1605 c 0,-14.72763 -13.07622,-24.66183 -27.64793,-21.00457 -6.21692,1.56035 -104.01916,96.71063 -115.79764,112.65772 -4.12929,5.59071 -6.24935,11.07924 -6.24935,16.17865 0,7.19801 3.90698,11.64371 58.0339,66.03607 31.91865,32.07515 59.98644,59.14644 62.37288,60.1584 5.82806,2.47133 8.50567,2.48545 14.83687,0.0783 z"
   id="path3378"
   inkscape:connector-curvature="0" /></svg>