<?xml version="1.0" encoding="UTF-8" standalone="no"?>
<svg
   xmlns="http://www.w3.org/2000/svg"
   version="1.1"
   x="0px"
   y="0px"
   viewBox="0 0 512 512"
   style="enable-background:new 0 0 512 512;"
   xml:space="preserve"
 >

<path
   fill="#222"
   d="M256,0C114.837,0,0,114.837,0,256s114.837,256,256,256s256-114.837,256-256S397.163,0,256,0z M313.749,347.584    c8.341,8.341,8.341,21.824,0,30.165c-4.16,4.16-9.621,6.251-15.083,6.251c-5.461,0-10.923-2.091-15.083-6.251L176.917,271.083    c-8.341-8.341-8.341-21.824,0-30.165l106.667-106.667c8.341-8.341,21.824-8.341,30.165,0s8.341,21.824,0,30.165L222.165,256    L313.749,347.584z"
   id="path824" />

<path
   style="fill:#fff"
   d="m 295.17605,383.41712 c -6.74257,-1.09267 -5.55972,-0.009 -64.9279,-59.45904 -36.4335,-36.48345 -56.30265,-56.79965 -57.08103,-58.3653 -2.99335,-6.02088 -2.94939,-13.24435 0.11682,-19.19837 1.09382,-2.12398 16.05117,-17.40737 57.76039,-59.01943 63.19829,-63.05107 58.49034,-58.94595 67.62234,-58.96347 3.99549,-0.008 5.38513,0.26949 8.52261,1.69978 8.22291,3.74861 13.27807,12.28979 12.45983,21.0521 -0.76871,8.23197 1.26243,5.91094 -50.54537,57.75913 l -47.11049,47.14724 46.86299,46.83878 c 53.38503,53.35745 50.69621,50.19276 50.69621,59.66862 0,4.55468 -0.20841,5.5207 -1.95764,9.07388 -4.23107,8.59452 -13.13934,13.26986 -22.41876,11.76608 z"
 />
 </svg>