<?xml version="1.0" encoding="UTF-8" standalone="no"?>
<!-- Generator: Adobe Illustrator 19.0.0, SVG Export Plug-In . SVG Version: 6.00 Build 0)  -->

<svg
   xmlns:dc="http://purl.org/dc/elements/1.1/"
   xmlns:cc="http://creativecommons.org/ns#"
   xmlns:rdf="http://www.w3.org/1999/02/22-rdf-syntax-ns#"
   xmlns:svg="http://www.w3.org/2000/svg"
   xmlns="http://www.w3.org/2000/svg"
   xmlns:sodipodi="http://sodipodi.sourceforge.net/DTD/sodipodi-0.dtd"
   xmlns:inkscape="http://www.inkscape.org/namespaces/inkscape"
   version="1.1"
   id="Layer_1"
   x="0px"
   y="0px"
   viewBox="0 0 512 512"
   style="enable-background:new 0 0 512 512;"
   xml:space="preserve"
   sodipodi:docname="right.svg"
   inkscape:version="0.92.4 (5da689c313, 2019-01-14)"><metadata
   id="metadata1609"><rdf:RDF><cc:Work
       rdf:about=""><dc:format>image/svg+xml</dc:format><dc:type
         rdf:resource="http://purl.org/dc/dcmitype/StillImage" /></cc:Work></rdf:RDF></metadata><defs
   id="defs1607" /><sodipodi:namedview
   pagecolor="#ffffff"
   bordercolor="#666666"
   borderopacity="1"
   objecttolerance="10"
   gridtolerance="10"
   guidetolerance="10"
   inkscape:pageopacity="0"
   inkscape:pageshadow="2"
   inkscape:window-width="1920"
   inkscape:window-height="1027"
   id="namedview1605"
   showgrid="false"
   inkscape:zoom="0.4609375"
   inkscape:cx="256"
   inkscape:cy="256"
   inkscape:window-x="-8"
   inkscape:window-y="-8"
   inkscape:window-maximized="1"
   inkscape:current-layer="Layer_1" />
<g
   id="g1572">
	<g
   id="g1570">
		<path
   d="M256,0C114.837,0,0,114.837,0,256s114.837,256,256,256s256-114.837,256-256S397.163,0,256,0z M335.083,271.083    L228.416,377.749c-4.16,4.16-9.621,6.251-15.083,6.251c-5.461,0-10.923-2.091-15.083-6.251c-8.341-8.341-8.341-21.824,0-30.165    L289.835,256l-91.584-91.584c-8.341-8.341-8.341-21.824,0-30.165s21.824-8.341,30.165,0l106.667,106.667    C343.424,249.259,343.424,262.741,335.083,271.083z"
   id="path1568" />
	</g>
</g>
<g
   id="g1574">
</g>
<g
   id="g1576">
</g>
<g
   id="g1578">
</g>
<g
   id="g1580">
</g>
<g
   id="g1582">
</g>
<g
   id="g1584">
</g>
<g
   id="g1586">
</g>
<g
   id="g1588">
</g>
<g
   id="g1590">
</g>
<g
   id="g1592">
</g>
<g
   id="g1594">
</g>
<g
   id="g1596">
</g>
<g
   id="g1598">
</g>
<g
   id="g1600">
</g>
<g
   id="g1602">
</g>
<path
   style="fill:#ffffff;stroke-width:2.16949153"
   d="m 199.42634,376.79061 c -4.77053,-4.77052 -6.34159,-8.37168 -6.34159,-14.53601 0,-7.78518 2.43528,-10.63812 48.76358,-57.12669 l 48.76358,-48.93229 -48.76358,-48.90051 c -46.35586,-46.48602 -48.76358,-49.30563 -48.76358,-57.10537 0,-11.45364 9.4367,-20.88805 20.89313,-20.88805 7.84548,0 10.79007,2.57363 66.32826,57.97228 62.18438,62.02813 64.28652,64.88174 57.38572,77.89976 -3.86864,7.29799 -108.74362,112.02884 -115.71873,115.55969 -8.15537,4.12832 -15.81515,2.78884 -22.54679,-3.94281 z"
   id="path2156"
   inkscape:connector-curvature="0" /></svg>