<?xml version="1.0" encoding="UTF-8" standalone="no"?>
<svg
   xmlns="http://www.w3.org/2000/svg"
   version="1.1"
   x="0px"
   y="0px"
   viewBox="0 0 512 512"
   style="enable-background:new 0 0 512 512;"
   xml:space="preserve">
<path
   fill="#222"
   d="M256,0C114.837,0,0,114.837,0,256s114.837,256,256,256s256-114.837,256-256S397.163,0,256,0z M335.083,271.083    L228.416,377.749c-4.16,4.16-9.621,6.251-15.083,6.251c-5.461,0-10.923-2.091-15.083-6.251c-8.341-8.341-8.341-21.824,0-30.165    L289.835,256l-91.584-91.584c-8.341-8.341-8.341-21.824,0-30.165s21.824-8.341,30.165,0l106.667,106.667    C343.424,249.259,343.424,262.741,335.083,271.083z"
   id="path827" />
<path
   style="fill:#fff"
   d="m 209.84271,383.41712 c -6.73592,-1.0916 -12.73019,-5.79039 -15.79468,-12.38113 -1.30821,-2.81356 -1.57682,-4.24694 -1.58756,-8.47138 -0.024,-9.45151 -2.70801,-6.29235 50.68329,-59.65607 l 46.86299,-46.83878 -47.06024,-47.14724 C 191.36054,157.2412 193.104,159.22826 192.36072,151.26863 c -0.83792,-8.97303 4.10449,-17.28522 12.6183,-21.22157 2.96336,-1.3701 4.40316,-1.6565 8.35431,-1.66179 4.1392,-0.006 5.31459,0.24832 8.84069,1.9094 3.83541,1.80679 7.21862,5.06557 59.46332,57.27629 59.36103,59.32242 57.79986,57.60598 59.17858,65.06421 0.76833,4.15625 -0.11285,9.35045 -2.25914,13.31674 -0.99946,1.84697 -19.67666,20.90567 -57.68175,58.85994 -52.81651,52.74588 -56.4015,56.19949 -59.48575,57.30589 -4.13216,1.4823 -7.84178,1.89976 -11.54657,1.29938 z"
   />
</svg>